<svg xmlns="http://www.w3.org/2000/svg" width="15.186" height="12.334" viewBox="0 0 15.186 12.334">
  <path id="Icon_awesome-twitter" data-name="Icon awesome-twitter" d="M13.625,6.455c.01.135.01.27.01.4a8.8,8.8,0,0,1-8.856,8.856A8.8,8.8,0,0,1,0,14.318a6.439,6.439,0,0,0,.752.039,6.233,6.233,0,0,0,3.864-1.33,3.118,3.118,0,0,1-2.91-2.158,3.925,3.925,0,0,0,.588.048,3.292,3.292,0,0,0,.819-.106,3.113,3.113,0,0,1-2.5-3.055V7.717a3.135,3.135,0,0,0,1.407.4A3.117,3.117,0,0,1,1.06,3.949,8.847,8.847,0,0,0,7.478,7.206,3.514,3.514,0,0,1,7.4,6.493a3.115,3.115,0,0,1,5.387-2.13,6.128,6.128,0,0,0,1.975-.752,3.1,3.1,0,0,1-1.368,1.715,6.24,6.24,0,0,0,1.792-.482,6.691,6.691,0,0,1-1.561,1.609Z" transform="translate(0 -3.381)" fill="#349df3"/>
</svg>
