<svg xmlns="http://www.w3.org/2000/svg" width="84.794" height="19.307" viewBox="0 0 84.794 19.307">
  <g id="Group_24" data-name="Group 24" transform="translate(-93.206 -198.693)">
    <rect id="Rectangle_5" data-name="Rectangle 5" width="64" height="14" transform="translate(112 201)" fill="rgba(242,126,52,0.15)"/>
    <text id="De-Echo" transform="translate(118 199)" fill="#f27e34" font-size="14" font-family="Nunito-Light, Nunito" font-weight="300"><tspan x="0" y="14">De-Echo</tspan></text>
    <g id="noun_Megaphone_3154238" transform="translate(99.91 195.801) rotate(20)">
      <g id="Group_7" data-name="Group 7" transform="translate(0 0)">
        <path id="Path_22" data-name="Path 22" d="M8.225,9.252l.241-.334a1.466,1.466,0,0,0,.185-1.382l-.305-.8L10,6.106,7.685,0,1.868,2.208a.968.968,0,0,0-.561,1.25l.047.128L.537,3.9A.833.833,0,0,0,.055,4.97l1,2.644a.835.835,0,0,0,.779.537.86.86,0,0,0,.3-.055l.817-.31a.967.967,0,0,0,1.238.53L4.4,8.234l2.208,4.338a.476.476,0,0,0,.426.263.482.482,0,0,0,.17-.031l1.9-.72a.492.492,0,0,0,.279-.279.475.475,0,0,0-.024-.393ZM3.505,3.905l-.253-.663L6.729,1.922l.036.095.215.568L4.13,3.666Z" transform="translate(0 6.768)" fill="#f37d34"/>
        <path id="Path_23" data-name="Path 23" d="M10.452,14a.579.579,0,0,1-.445.206.693.693,0,0,1-.118-.012l-7.5-1.536L0,6.356,4.592.233A.584.584,0,0,1,5.6.378l4.947,13.036A.574.574,0,0,1,10.452,14Z" transform="translate(8.454 0)" fill="#f37d34"/>
      </g>
    </g>
  </g>
</svg>
