<svg xmlns="http://www.w3.org/2000/svg" width="122.448" height="94.323" viewBox="0 0 122.448 94.323">
  <g id="noun_Megaphone_3154238" transform="translate(33.372 -14.392) rotate(20)">
    <g id="Group_7" data-name="Group 7" transform="translate(0 0)">
      <path id="Path_22" data-name="Path 22" d="M40.938,46.05l1.2-1.661a7.3,7.3,0,0,0,.919-6.88l-1.52-3.993,8.246-3.122L38.252,0,9.3,10.991A4.818,4.818,0,0,0,6.5,17.211l.236.636L2.675,19.39a4.147,4.147,0,0,0-2.4,5.348L5.267,37.9a4.157,4.157,0,0,0,3.876,2.674,4.277,4.277,0,0,0,1.473-.271l4.064-1.543A4.813,4.813,0,0,0,20.84,41.4l1.084-.412L32.915,62.578a2.37,2.37,0,0,0,2.12,1.308,2.4,2.4,0,0,0,.848-.153l9.436-3.581a2.447,2.447,0,0,0,1.39-1.39,2.365,2.365,0,0,0-.118-1.956ZM17.448,19.438l-1.261-3.3L33.492,9.566l.177.471,1.072,2.827L20.558,18.248Z" transform="translate(0 33.687)" fill="#2d8aeb"/>
      <path id="Path_23" data-name="Path 23" d="M52.022,69.664a2.883,2.883,0,0,1-2.215,1.025,3.45,3.45,0,0,1-.589-.059L11.9,62.985,0,31.637,22.854,1.161A2.907,2.907,0,0,1,27.9,1.88L52.517,66.766A2.856,2.856,0,0,1,52.022,69.664Z" transform="translate(42.08 0)" fill="#2d8aeb"/>
    </g>
  </g>
</svg>
